HIERARCHY
ROOT RootJoint
{
    OFFSET   0.000000   0.000000   0.000000
    CHANNELS 6 Xposition Yposition Zposition Xrotation Yrotation Zrotation
    JOINT pelvis_lowerback
    {
        OFFSET   0.000000   0.093605   0.000000
        CHANNELS 3 Xrotation Yrotation Zrotation
        JOINT lowerback_torso
        {
            OFFSET   0.000000   0.100000   0.000000
            CHANNELS 3 Xrotation Yrotation Zrotation
            JOINT torso_head
            {
                OFFSET   0.000000   0.282350   0.000000
                CHANNELS 3 Xrotation Yrotation Zrotation
                End Site
                {
                    OFFSET   0.000000   0.192650   0.000000
                }
            }
            JOINT rTorso_Clavicle
            {
                OFFSET  -0.001000   0.157500   0.000000
                CHANNELS 3 Xrotation Yrotation Zrotation
                JOINT rShoulder
                {
                    OFFSET  -0.117647   0.000000   0.000000
                    CHANNELS 3 Xrotation Yrotation Zrotation
                    JOINT rElbow
                    {
                        OFFSET  -0.245000   0.000000   0.000000
                        CHANNELS 3 Xrotation Yrotation Zrotation
                        JOINT rWrist
                        {
                            OFFSET  -0.240000   0.000000   0.000000
                            CHANNELS 3 Xrotation Yrotation Zrotation
                            End Site
                            {
                                OFFSET  -0.116353  -0.002500   0.000000
                            }
                        }
                    }
                }
            }
            JOINT lTorso_Clavicle
            {
                OFFSET   0.001000   0.157500   0.000000
                CHANNELS 3 Xrotation Yrotation Zrotation
                JOINT lShoulder
                {
                    OFFSET   0.117647   0.000000   0.000000
                    CHANNELS 3 Xrotation Yrotation Zrotation
                    JOINT lElbow
                    {
                        OFFSET   0.245000   0.000000   0.000000
                        CHANNELS 3 Xrotation Yrotation Zrotation
                        JOINT lWrist
                        {
                            OFFSET   0.240000   0.000000   0.000000
                            CHANNELS 3 Xrotation Yrotation Zrotation
                            End Site
                            {
                                OFFSET   0.116353  -0.002500   0.000000
                            }
                        }
                    }
                }
            }
        }
    }
    JOINT rHip
    {
        OFFSET  -0.100000  -0.051395   0.000000
        CHANNELS 3 Xrotation Yrotation Zrotation
        JOINT rKnee
        {
            OFFSET   0.000000  -0.410000   0.000000
            CHANNELS 3 Xrotation Yrotation Zrotation
            JOINT rAnkle
            {
                OFFSET   0.000000  -0.390000   0.000000
                CHANNELS 3 Xrotation Yrotation Zrotation
                JOINT rToeJoint
                {
                    OFFSET   0.000000  -0.050000   0.130000
                    CHANNELS 3 Xrotation Yrotation Zrotation
                    End Site
                    {
                        OFFSET  -0.010000   0.002000   0.060000
                    }
                }
            }
        }
    }
    JOINT lHip
    {
        OFFSET   0.100000  -0.051395   0.000000
        CHANNELS 3 Xrotation Yrotation Zrotation
        JOINT lKnee
        {
            OFFSET   0.000000  -0.410000   0.000000
            CHANNELS 3 Xrotation Yrotation Zrotation
            JOINT lAnkle
            {
                OFFSET   0.000000  -0.390000   0.000000
                CHANNELS 3 Xrotation Yrotation Zrotation
                JOINT lToeJoint
                {
                    OFFSET   0.000000  -0.050000   0.130000
                    CHANNELS 3 Xrotation Yrotation Zrotation
                    End Site
                    {
                        OFFSET   0.010000   0.002000   0.060000
                    }
                }
            }
        }
    }
}
MOTION
Frames: 14
Frame Time:   0.008333
 -2.376719   0.925631   3.975860   0.000000   0.000000   0.000000   0.000000   0.000000   0.000000   0.000000   0.000000   0.000000   0.000000   0.000000   0.000000   0.000000   0.000000   0.000000   0.000000   0.000000   0.000000   0.000000   0.000000   0.000000   0.000000   0.000000   0.000000   0.000000   0.000000   0.000000   0.000000   0.000000   0.000000   0.000000   0.000000   0.000000   0.000000   0.000000   0.000000   0.000000   0.000000   0.000000   0.000000   0.000000   0.000000   0.000000   0.000000   0.000000   0.000000   0.000000   0.000000   0.000000   0.000000   0.000000   0.000000   0.000000   0.000000   0.000000   0.000000   0.000000   0.000000   0.000000   0.000000
 -2.378183   0.925142   3.969586   1.176262   0.148668   0.160097  -1.131652  -0.275210  -0.526620   1.922757  -0.571153  -0.329082  -2.756097   0.261949   0.578507   0.208828   0.911503   0.302655   1.423700   0.060691   1.940450   0.035556   2.484227  -0.079108  -0.208625  -2.450204  -1.302395  -1.745918  -0.205463   2.003027  -1.487379   0.954110  -2.386325   0.017522  -1.830631  -0.020371  -0.067064   1.029790   0.770028  -2.481713  -0.327796  -0.005752   0.936110  -0.001342  -0.001495  -1.608789  -0.978398   0.392732   1.654764  -0.008469  -0.016606  -2.415512  -0.626259   0.030648   0.563327  -0.001005  -0.002366  -1.846287  -0.018243  -0.757767   1.901426   0.009197  -0.008791
 -2.380209   0.925222   3.959969   2.343655   0.545235   0.158785  -1.706494  -0.617897  -1.082855   4.235761  -1.203774  -0.619897  -5.407050   0.461534   1.072109   0.421517   2.217811   1.067831   2.749269   0.528935   4.139119   0.084846   4.967951  -0.162906  -0.350390  -4.067916  -2.053971  -3.368761  -0.797013   3.764821  -2.867389   1.620658  -4.721943   0.037947  -3.656455  -0.018363  -0.197760   1.453920   1.184093  -5.008768  -0.645600   0.031915   2.443730  -0.002144  -0.000149  -2.753614  -1.872109   0.681911   3.019137  -0.012270  -0.022546  -5.304566  -1.294753   0.260073   0.872921  -0.001617  -0.002610  -3.590624  -0.013997  -1.469769   3.555497   0.013058  -0.012521
 -2.382504   0.925384   3.947787   3.558240   0.984765   0.180955  -1.863767  -0.873610  -1.745897   6.829958  -1.789691  -0.899905  -7.856360   0.625798   1.500482   0.588432   3.807362   1.998151   3.946728   1.296989   6.352706   0.135457   7.390231  -0.243260  -0.460761  -5.005048  -2.383944  -4.850794  -1.680619   5.349400  -4.146904   2.046980  -6.936054   0.058769  -5.449336  -0.001298  -0.308282   1.375925   1.425584  -7.598422  -0.975866   0.024214   3.555269  -0.002615   0.000937  -4.024089  -2.746039   0.979815   4.362164  -0.016290  -0.026212  -8.559258  -1.955232   0.442121   1.005365  -0.001695  -0.002327  -5.197969   0.015260  -2.135172   5.057452   0.014317  -0.014947
 -2.384932   0.925441   3.933798   4.761407   1.453231   0.165129  -1.647089  -1.046936  -2.383581   9.669455  -2.318049  -1.153625 -10.109718   0.765214   1.880576   0.686793   5.595313   2.912154   5.008965   2.282115   8.435713   0.182500   9.735241  -0.316672  -0.533663  -5.415985  -2.566667  -6.204303  -2.770810   6.806003  -5.346175   2.296067  -9.010554   0.078639  -7.192797   0.024480  -0.394243   0.914470   1.601487 -10.294960  -1.291988   0.027008   4.194931  -0.002663   0.001618  -5.321116  -3.574735   1.238948   5.602307  -0.019581  -0.027103 -12.009799  -2.621907   0.616751   1.007381  -0.001371  -0.001859  -6.728436   0.061231  -2.752958   6.429699   0.013983  -0.016697
 -2.387416   0.925381   3.918811   5.936071   2.022260   0.121894  -1.153593  -1.178744  -2.975722  12.704816  -2.812545  -1.370263 -12.174067   0.884676   2.227111   0.704921   7.489437   3.742407   5.938153   3.399247  10.333884   0.224462  11.987837  -0.379588  -0.570262  -5.445919  -2.766347  -7.441894  -4.001670   8.172435  -6.479530   2.415824 -10.934723   0.096974  -8.876349   0.053421  -0.455969   0.164991   1.775784 -13.075285  -1.590850  -0.000193   4.535434  -0.002416   0.002106  -6.583182  -4.355258   1.458026   6.723960  -0.021830  -0.025256 -15.564316  -3.298116   0.739693   0.938283  -0.000877  -0.001428  -8.158772   0.118893  -3.329312   7.683151   0.012778  -0.017132
 -2.389966   0.925238   3.903579   7.094450   2.748967   0.033533  -0.490265  -1.298435  -3.492776  15.875208  -3.293370  -1.528739 -14.063496   0.987992   2.548216   0.642667   9.408992   4.484982   6.744163   4.575548  12.046988   0.261140  14.134770  -0.429460  -0.577337  -5.224486  -3.037033  -8.576473  -5.315652   9.460138  -7.555754   2.448226 -12.715105   0.113579 -10.491722   0.081327  -0.496132  -0.791873   1.970718 -15.870612  -1.870473  -0.063268   4.729796  -0.002079   0.002447  -7.766724  -5.088509   1.644343   7.734187  -0.023057  -0.021227 -19.168222  -3.980598   0.797003   0.828308  -0.000331  -0.001199  -9.494399   0.184794  -3.867742   8.829023   0.011077  -0.016008
 -2.392414   0.924583   3.888906   8.454770   3.292905  -0.053566  -0.972229  -1.043112  -3.724056  19.931709  -3.657334  -2.047212 -16.152833   1.468670   2.901184  -0.458017  11.481129   5.242516   6.486095   5.525190  13.645205   0.245693  15.297994  -0.392785  -0.597499  -4.797622  -3.026790 -11.241523  -7.360125  10.593399  -8.873854   1.899592 -14.005006   0.095804 -10.768388   0.067731  -0.712926  -1.825924   1.865039 -19.824550  -2.106393  -0.202311   8.024921  -0.003573   0.010429  -9.807839  -5.820030   1.931735   8.699761  -0.023792  -0.019409 -23.745369  -4.711432   0.764426   3.862161  -0.010984  -0.005141 -10.934334   0.232786  -4.559868   9.902260   0.011184  -0.016371
 -2.394911   0.923322   3.875829   9.712352   3.828840  -0.138047  -1.618326  -0.741940  -3.917296  23.898500  -4.036344  -2.574449 -18.116211   1.933360   3.241433  -1.592541  13.535587   5.917010   6.181597   6.473775  15.049795   0.228707  16.390464  -0.357526  -0.663822  -4.474634  -3.164709 -13.729015  -9.516643  11.651074 -10.166464   1.268159 -15.150945   0.081746 -11.059191   0.056460  -0.966772  -2.801422   1.913466 -23.629989  -2.340216  -0.380000  11.704849  -0.004422   0.017271 -11.689833  -6.514096   2.179712   9.626240  -0.023485  -0.017891 -28.075003  -5.459021   0.684303   7.342266  -0.022476  -0.008920 -12.245780   0.284351  -5.206641  10.986687   0.010566  -0.016523
 -2.397459   0.921406   3.864133  10.989037   4.390661  -0.236198  -2.418973  -0.448238  -4.086894  27.695305  -4.458350  -3.076846 -19.976448   2.357783   3.575783  -2.727754  15.505087   6.559900   5.856215   7.396310  16.323566   0.212521  17.430279  -0.324784  -0.720805  -4.094437  -3.413743 -16.039089 -11.662422  12.597174 -11.406390   0.626099 -16.208085   0.070843 -11.363302   0.047114  -1.203269  -3.885957   2.035573 -27.354885  -2.563801  -0.587669  15.464973  -0.004659   0.023720 -13.439964  -7.169778   2.391246  10.496988  -0.022513  -0.016206 -32.247745  -6.208137   0.562653  10.937099  -0.033594  -0.010479 -13.460089   0.343183  -5.809959  10.789362   0.008275  -0.012713
 -2.400045   0.918815   3.853605  12.303141   4.983852  -0.354439  -3.325145  -0.173590  -4.234459  31.339363  -4.927915  -3.545906 -21.740473   2.742723   3.903366  -3.851277  17.362360   7.200955   5.520394   8.274583  17.504362   0.197704  18.413729  -0.294704  -0.769129  -3.664241  -3.714111 -18.190012 -13.751045  13.421902 -12.588339   0.003540 -17.200416   0.062326 -11.667536   0.039364  -1.423992  -5.042635   2.179361 -31.033680  -2.773464  -0.821693  19.254226  -0.004377   0.029990 -15.070294  -7.787612   2.570829  10.397609  -0.017639  -0.012781 -36.312514  -6.952825   0.400891  14.582955  -0.043983  -0.009740 -14.592347   0.408866  -6.372437  10.631494   0.006576  -0.009866
 -2.402652   0.915539   3.844076  13.651273   5.601132  -0.494982  -4.293801   0.080781  -4.360921  34.861813  -5.442211  -3.978097 -23.408618   3.091578   4.222207  -4.954581  19.097827   7.852928   5.181428   9.100970  18.613845   0.184409  19.339644  -0.267343  -0.811316  -3.208801  -4.023410 -20.197950 -15.757364  14.128493 -13.710375  -0.584977 -18.139853   0.055606 -11.964096   0.032981  -1.632150  -6.225467   2.318787 -34.683302  -2.967243  -1.078307  23.058090  -0.003688   0.035874 -16.592939  -8.368910   2.722286  10.318100  -0.013848  -0.010106 -40.295395  -7.689803   0.201773  18.262552  -0.053513  -0.007216 -15.647005   0.479784  -6.896604  10.505197   0.005300  -0.007724
 -2.405256   0.911567   3.835421  15.027435   6.233053  -0.656823  -5.292596   0.315513  -4.468188  38.289770  -5.997027  -4.371775 -24.981381   3.407834   4.530712  -6.031708  20.710179   8.519666   4.844484   9.872983  19.664710   0.172577  20.208776  -0.242616  -0.849113  -2.746282  -4.316989 -22.077094 -17.667120  14.725805 -14.772259  -1.132349 -19.032185   0.050234 -12.248501   0.027760  -1.830170  -7.402674   2.442646 -38.314491  -3.143769  -1.354903  26.870663  -0.002741   0.041126 -18.014072  -8.915127   2.849584  10.254488  -0.010892  -0.008008 -44.213906  -8.416594  -0.032667  21.967390  -0.062162  -0.003465 -16.629578   0.554491  -7.384895  10.404157   0.004330  -0.006095
 -2.407493   0.906357   3.827659  16.872093   6.639703  -0.861963  -7.123765   0.674227  -4.505274  41.620615  -6.500257  -4.751300 -26.087661   3.466752   4.829470  -6.886855  22.220747   8.716269   4.485071  10.528682  20.455662   0.152241  20.834339  -0.213177  -1.031742  -2.111123  -3.605125 -23.570647 -19.583230  15.159012 -15.597569  -1.865175 -19.581571   0.038204 -12.144016   0.021712  -2.160665  -8.383331   2.204462 -42.345679  -3.188143  -1.555435  30.616702  -0.001796   0.042714 -19.368137  -9.497576   3.159279  10.203603  -0.008488  -0.006307 -48.431048  -8.867381  -0.183599  25.632370  -0.067087   0.003093 -17.696545   0.264577  -7.377245  10.323326   0.003899  -0.004691
